<?xml version="1.0" encoding="UTF-8"?>
<svg xmlns="http://www.w3.org/2000/svg" version="1.1" xmlns:xlink="http://www.w3.org/1999/xlink" viewBox="0 0 1080 1080">
  <!-- Generator: Adobe Illustrator 29.2.1, SVG Export Plug-In . SVG Version: 2.1.0 Build 116)  -->
  <defs>
    <style>
      .st0 {
        fill: url(#New_Gradient_Swatch_copy);
      }

      .st1 {
        fill: url(#linear-gradient2);
      }

      .st2 {
        fill: url(#New_Gradient_Swatch_copy1);
      }

      .st3 {
        fill: none;
        stroke: #000;
        stroke-miterlimit: 10;
        stroke-width: .75px;
      }

      .st4 {
        fill: url(#radial-gradient);
      }

      .st4, .st5 {
        mix-blend-mode: multiply;
      }

      .st6 {
        fill: #020202;
      }

      .st7 {
        fill: #282830;
      }

      .st8 {
        fill: url(#linear-gradient1);
      }

      .st9 {
        isolation: isolate;
      }

      .st10 {
        fill: url(#linear-gradient4);
      }

      .st11 {
        fill: url(#linear-gradient5);
      }

      .st12 {
        fill: url(#linear-gradient3);
      }

      .st13 {
        fill: url(#linear-gradient);
      }
    </style>
    <linearGradient id="New_Gradient_Swatch_copy" data-name="New Gradient Swatch copy" x1="841.86" y1="47.95" x2="265.52" y2="973.81" gradientUnits="userSpaceOnUse">
      <stop offset=".03" stop-color="#92693a"/>
      <stop offset=".1" stop-color="#a17a43"/>
      <stop offset=".24" stop-color="#c9a65d"/>
      <stop offset=".31" stop-color="#e0c06c"/>
      <stop offset=".5" stop-color="#b58b42"/>
      <stop offset=".56" stop-color="#bc954c"/>
      <stop offset=".65" stop-color="#d2b269"/>
      <stop offset=".77" stop-color="#f4e097"/>
      <stop offset=".79" stop-color="#f8e69d"/>
      <stop offset=".81" stop-color="#e6d08c"/>
      <stop offset=".85" stop-color="#c8aa6e"/>
      <stop offset=".89" stop-color="#af8d57"/>
      <stop offset=".93" stop-color="#9e7846"/>
      <stop offset=".96" stop-color="#946b3c"/>
      <stop offset="1" stop-color="#916739"/>
    </linearGradient>
    <linearGradient id="New_Gradient_Swatch_copy1" data-name="New Gradient Swatch copy" x1="138.91" y1="540" x2="932.22" y2="540" xlink:href="#New_Gradient_Swatch_copy"/>
    <radialGradient id="radial-gradient" cx="535.57" cy="540" fx="535.57" fy="540" r="350.48" gradientUnits="userSpaceOnUse">
      <stop offset=".8" stop-color="#fff" stop-opacity="0"/>
      <stop offset="1" stop-color="#291e06"/>
    </radialGradient>
    <linearGradient id="linear-gradient" x1="494.6" y1="781.05" x2="576.53" y2="781.05" gradientUnits="userSpaceOnUse">
      <stop offset="0" stop-color="#fbc01b"/>
      <stop offset=".25" stop-color="#fff5a8"/>
      <stop offset=".32" stop-color="#f8e996"/>
      <stop offset=".44" stop-color="#e6ca69"/>
      <stop offset=".61" stop-color="#ca9822"/>
      <stop offset=".69" stop-color="#bd8100"/>
      <stop offset="1" stop-color="#fff5a8"/>
    </linearGradient>
    <linearGradient id="linear-gradient1" x1="597.21" y1="768.31" x2="653.48" y2="768.31" xlink:href="#linear-gradient"/>
    <linearGradient id="linear-gradient2" x1="417.65" y1="768.31" x2="473.92" y2="768.31" xlink:href="#linear-gradient"/>
    <linearGradient id="linear-gradient3" x1="494.83" y1="1625.98" x2="576.77" y2="1625.98" gradientTransform="translate(1071.36 1924.92) rotate(-180)" xlink:href="#linear-gradient"/>
    <linearGradient id="linear-gradient4" x1="597.45" y1="1613.23" x2="653.71" y2="1613.23" gradientTransform="translate(1071.36 1924.92) rotate(-180)" xlink:href="#linear-gradient"/>
    <linearGradient id="linear-gradient5" x1="417.89" y1="1613.23" x2="474.15" y2="1613.23" gradientTransform="translate(1071.36 1924.92) rotate(-180)" xlink:href="#linear-gradient"/>
  </defs>
  <g class="st9">
    <g id="Layer_1">
      <g>
        <g>
          <path class="st0" d="M570.89,57.27h0c16.42,10.75,36.84,13.44,55.49,7.3h0c24.36-8.02,51.16-.84,68.25,18.29h0c13.08,14.64,32.11,22.52,51.71,21.42h0c25.61-1.44,49.63,12.43,61.19,35.33h0c8.84,17.52,25.19,30.06,44.4,34.07h0c25.11,5.24,44.72,24.85,49.96,49.96h0c4.01,19.21,16.55,35.56,34.07,44.4h0c22.9,11.56,36.77,35.58,35.33,61.19h0c-1.1,19.6,6.78,38.63,21.42,51.71h0c19.13,17.09,26.31,43.89,18.29,68.25h0c-6.14,18.64-3.45,39.07,7.3,55.49h0c14.05,21.46,14.05,49.2,0,70.65h0c-10.75,16.42-13.44,36.84-7.3,55.49h0c8.02,24.36.84,51.16-18.29,68.25h0c-14.64,13.08-22.52,32.11-21.42,51.71h0c1.44,25.61-12.43,49.63-35.33,61.19h0c-17.52,8.84-30.06,25.19-34.07,44.4h0c-5.24,25.11-24.85,44.72-49.96,49.96h0c-19.21,4.01-35.56,16.55-44.4,34.07h0c-11.56,22.9-35.58,36.77-61.19,35.33h0c-19.6-1.1-38.63,6.78-51.71,21.42h0c-17.09,19.13-43.89,26.31-68.25,18.29h0c-18.64-6.14-39.07-3.45-55.49,7.3h0c-21.46,14.05-49.2,14.05-70.65,0h0c-16.42-10.75-36.84-13.44-55.49-7.31h0c-24.36,8.02-51.16.84-68.25-18.29h0c-13.08-14.64-32.11-22.52-51.71-21.42h0c-25.61,1.44-49.63-12.43-61.19-35.33h0c-8.84-17.52-25.19-30.06-44.4-34.07h0c-25.11-5.24-44.72-24.85-49.96-49.96h0c-4.01-19.21-16.55-35.56-34.07-44.4h0c-22.9-11.56-36.77-35.58-35.33-61.19h0c1.1-19.6-6.78-38.63-21.42-51.71h0c-19.13-17.09-26.31-43.88-18.29-68.25h0c6.14-18.64,3.45-39.07-7.3-55.49h0c-14.05-21.46-14.05-49.2,0-70.65h0c10.75-16.42,13.44-36.84,7.3-55.49h0c-8.02-24.36-.84-51.16,18.29-68.25h0c14.64-13.08,22.52-32.11,21.42-51.71h0c-1.44-25.61,12.43-49.63,35.33-61.19h0c17.52-8.84,30.06-25.19,34.07-44.4h0c5.24-25.11,24.85-44.72,49.96-49.96h0c19.21-4.01,35.56-16.55,44.4-34.07h0c11.56-22.9,35.58-36.77,61.19-35.33h0c19.6,1.1,38.63-6.78,51.71-21.42h0c17.09-19.13,43.88-26.31,68.25-18.29h0c18.64,6.14,39.07,3.45,55.49-7.3h0c21.46-14.05,49.2-14.05,70.65,0Z"/>
          <circle cx="535.57" cy="540" r="426.21" transform="translate(-224.97 536.86) rotate(-45)"/>
          <path class="st2" d="M535.56,936.66c-219.07,0-396.66-177.59-396.66-396.66s177.59-396.66,396.66-396.66,396.66,177.59,396.66,396.66-177.59,396.66-396.66,396.66Z"/>
          <circle class="st4" cx="535.57" cy="540" r="350.48"/>
        </g>
        <g>
          <g>
            <path d="M307.14,579.44c-4.65,2.32-13.95,4.65-25.86,4.65-27.6,0-48.37-17.43-48.37-49.54s20.77-51.42,51.13-51.42c12.2,0,19.9,2.62,23.24,4.36l-3.05,10.31c-4.79-2.32-11.62-4.07-19.76-4.07-22.95,0-38.2,14.67-38.2,40.38,0,23.97,13.8,39.37,37.62,39.37,7.7,0,15.54-1.6,20.63-4.07l2.61,10.02Z"/>
            <path d="M373.67,536.73h-38.06v35.3h42.42v10.6h-55.05v-97.91h52.88v10.6h-40.24v30.94h38.06v10.46Z"/>
            <path d="M394.44,486.03c6.39-1.31,15.54-2.03,24.26-2.03,13.51,0,22.23,2.47,28.33,7.99,4.94,4.36,7.7,11.04,7.7,18.59,0,12.93-8.13,21.5-18.45,24.99v.44c7.55,2.62,12.06,9.59,14.38,19.76,3.2,13.66,5.52,23.1,7.55,26.87h-13.07c-1.6-2.76-3.78-11.19-6.54-23.39-2.91-13.51-8.13-18.59-19.61-19.03h-11.91v42.42h-12.64v-96.6ZM407.08,530.63h12.93c13.51,0,22.08-7.41,22.08-18.59,0-12.64-9.15-18.16-22.52-18.3-6.1,0-10.46.58-12.49,1.16v35.73Z"/>
            <path d="M492.5,495.47h-29.78v-10.75h72.49v10.75h-29.92v87.16h-12.78v-87.16Z"/>
            <path d="M558.73,484.73v97.91h-12.64v-97.91h12.64Z"/>
            <path d="M580.81,484.73h52.73v10.6h-40.09v32.54h37.04v10.46h-37.04v44.31h-12.64v-97.91Z"/>
            <path d="M664.19,484.73v97.91h-12.64v-97.91h12.64Z"/>
            <path d="M736.97,536.73h-38.06v35.3h42.42v10.6h-55.05v-97.91h52.88v10.6h-40.24v30.94h38.06v10.46Z"/>
            <path d="M757.74,486.03c7.7-1.16,16.85-2.03,26.87-2.03,18.16,0,31.09,4.21,39.66,12.2,8.72,7.99,13.8,19.32,13.8,35.15s-4.94,29.05-14.09,38.06c-9.15,9.15-24.26,14.09-43.29,14.09-9.01,0-16.56-.44-22.95-1.16v-96.31ZM770.38,572.61c3.2.58,7.84.73,12.78.73,27.02,0,41.69-15.11,41.69-41.55.14-23.1-12.93-37.77-39.66-37.77-6.54,0-11.48.58-14.82,1.31v77.28Z"/>
          </g>
          <g>
            <path class="st6" d="M307.14,579.44c-4.65,2.32-13.95,4.65-25.86,4.65-27.6,0-48.37-17.43-48.37-49.54s20.77-51.42,51.13-51.42c12.2,0,19.9,2.62,23.24,4.36l-3.05,10.31c-4.79-2.32-11.62-4.07-19.76-4.07-22.95,0-38.2,14.67-38.2,40.38,0,23.97,13.8,39.37,37.62,39.37,7.7,0,15.54-1.6,20.63-4.07l2.61,10.02Z"/>
            <path class="st6" d="M373.67,536.73h-38.06v35.3h42.42v10.6h-55.05v-97.91h52.88v10.6h-40.24v30.94h38.06v10.46Z"/>
            <path class="st6" d="M394.44,486.03c6.39-1.31,15.54-2.03,24.26-2.03,13.51,0,22.23,2.47,28.33,7.99,4.94,4.36,7.7,11.04,7.7,18.59,0,12.93-8.13,21.5-18.45,24.99v.44c7.55,2.62,12.06,9.59,14.38,19.76,3.2,13.66,5.52,23.1,7.55,26.87h-13.07c-1.6-2.76-3.78-11.19-6.54-23.39-2.91-13.51-8.13-18.59-19.61-19.03h-11.91v42.42h-12.64v-96.6ZM407.08,530.63h12.93c13.51,0,22.08-7.41,22.08-18.59,0-12.64-9.15-18.16-22.52-18.3-6.1,0-10.46.58-12.49,1.16v35.73Z"/>
            <path class="st6" d="M492.5,495.47h-29.78v-10.75h72.49v10.75h-29.92v87.16h-12.78v-87.16Z"/>
            <path class="st6" d="M558.73,484.73v97.91h-12.64v-97.91h12.64Z"/>
            <path class="st6" d="M580.81,484.73h52.73v10.6h-40.09v32.54h37.04v10.46h-37.04v44.31h-12.64v-97.91Z"/>
            <path class="st6" d="M664.19,484.73v97.91h-12.64v-97.91h12.64Z"/>
            <path class="st6" d="M736.97,536.73h-38.06v35.3h42.42v10.6h-55.05v-97.91h52.88v10.6h-40.24v30.94h38.06v10.46Z"/>
            <path class="st6" d="M757.74,486.03c7.7-1.16,16.85-2.03,26.87-2.03,18.16,0,31.09,4.21,39.66,12.2,8.72,7.99,13.8,19.32,13.8,35.15s-4.94,29.05-14.09,38.06c-9.15,9.15-24.26,14.09-43.29,14.09-9.01,0-16.56-.44-22.95-1.16v-96.31ZM770.38,572.61c3.2.58,7.84.73,12.78.73,27.02,0,41.69-15.11,41.69-41.55.14-23.1-12.93-37.77-39.66-37.77-6.54,0-11.48.58-14.82,1.31v77.28Z"/>
          </g>
          <g>
            <path class="st3" d="M307.14,579.44c-4.65,2.32-13.95,4.65-25.86,4.65-27.6,0-48.37-17.43-48.37-49.54s20.77-51.42,51.13-51.42c12.2,0,19.9,2.62,23.24,4.36l-3.05,10.31c-4.79-2.32-11.62-4.07-19.76-4.07-22.95,0-38.2,14.67-38.2,40.38,0,23.97,13.8,39.37,37.62,39.37,7.7,0,15.54-1.6,20.63-4.07l2.61,10.02Z"/>
            <path class="st3" d="M373.67,536.73h-38.06v35.3h42.42v10.6h-55.05v-97.91h52.88v10.6h-40.24v30.94h38.06v10.46Z"/>
            <path class="st3" d="M394.44,486.03c6.39-1.31,15.54-2.03,24.26-2.03,13.51,0,22.23,2.47,28.33,7.99,4.94,4.36,7.7,11.04,7.7,18.59,0,12.93-8.13,21.5-18.45,24.99v.44c7.55,2.62,12.06,9.59,14.38,19.76,3.2,13.66,5.52,23.1,7.55,26.87h-13.07c-1.6-2.76-3.78-11.19-6.54-23.39-2.91-13.51-8.13-18.59-19.61-19.03h-11.91v42.42h-12.64v-96.6ZM407.08,530.63h12.93c13.51,0,22.08-7.41,22.08-18.59,0-12.64-9.15-18.16-22.52-18.3-6.1,0-10.46.58-12.49,1.16v35.73Z"/>
            <path class="st3" d="M492.5,495.47h-29.78v-10.75h72.49v10.75h-29.92v87.16h-12.78v-87.16Z"/>
            <path class="st3" d="M558.73,484.73v97.91h-12.64v-97.91h12.64Z"/>
            <path class="st3" d="M580.81,484.73h52.73v10.6h-40.09v32.54h37.04v10.46h-37.04v44.31h-12.64v-97.91Z"/>
            <path class="st3" d="M664.19,484.73v97.91h-12.64v-97.91h12.64Z"/>
            <path class="st3" d="M736.97,536.73h-38.06v35.3h42.42v10.6h-55.05v-97.91h52.88v10.6h-40.24v30.94h38.06v10.46Z"/>
            <path class="st3" d="M757.74,486.03c7.7-1.16,16.85-2.03,26.87-2.03,18.16,0,31.09,4.21,39.66,12.2,8.72,7.99,13.8,19.32,13.8,35.15s-4.94,29.05-14.09,38.06c-9.15,9.15-24.26,14.09-43.29,14.09-9.01,0-16.56-.44-22.95-1.16v-96.31ZM770.38,572.61c3.2.58,7.84.73,12.78.73,27.02,0,41.69-15.11,41.69-41.55.14-23.1-12.93-37.77-39.66-37.77-6.54,0-11.48.58-14.82,1.31v77.28Z"/>
          </g>
        </g>
        <g>
          <g>
            <g>
              <polygon class="st7" points="535.57 804.12 510.25 820.02 517.54 791.02 494.6 771.85 524.42 769.83 535.57 742.09 546.71 769.83 576.53 771.85 553.59 791.02 560.89 820.02 535.57 804.12"/>
              <g>
                <polygon class="st7" points="625.34 784.15 607.96 795.06 612.97 775.15 597.21 761.99 617.69 760.6 625.34 741.55 632.99 760.6 653.48 761.99 637.72 775.15 642.73 795.06 625.34 784.15"/>
                <polygon class="st7" points="445.79 784.15 428.4 795.06 433.41 775.15 417.65 761.99 438.14 760.6 445.79 741.55 453.44 760.6 473.92 761.99 458.16 775.15 463.17 795.06 445.79 784.15"/>
              </g>
            </g>
            <g class="st5">
              <polygon class="st13" points="535.57 804.12 510.25 820.02 517.54 791.02 494.6 771.85 524.42 769.83 535.57 742.09 546.71 769.83 576.53 771.85 553.59 791.02 560.89 820.02 535.57 804.12"/>
              <g>
                <polygon class="st8" points="625.34 784.15 607.96 795.06 612.97 775.15 597.21 761.99 617.69 760.6 625.34 741.55 632.99 760.6 653.48 761.99 637.72 775.15 642.73 795.06 625.34 784.15"/>
                <polygon class="st1" points="445.79 784.15 428.4 795.06 433.41 775.15 417.65 761.99 438.14 760.6 445.79 741.55 453.44 760.6 473.92 761.99 458.16 775.15 463.17 795.06 445.79 784.15"/>
              </g>
            </g>
          </g>
          <g>
            <g>
              <polygon class="st7" points="535.57 275.88 560.89 259.98 553.59 288.98 576.53 308.15 546.71 310.17 535.57 337.91 524.42 310.17 494.6 308.15 517.54 288.98 510.25 259.98 535.57 275.88"/>
              <g>
                <polygon class="st7" points="445.79 295.85 463.17 284.94 458.16 304.85 473.92 318.01 453.44 319.4 445.79 338.45 438.14 319.4 417.65 318.01 433.41 304.85 428.4 284.94 445.79 295.85"/>
                <polygon class="st7" points="625.35 295.85 642.73 284.94 637.72 304.85 653.48 318.01 632.99 319.4 625.35 338.45 617.7 319.4 597.21 318.01 612.97 304.85 607.96 284.94 625.35 295.85"/>
              </g>
            </g>
            <g class="st5">
              <polygon class="st12" points="535.57 275.88 560.89 259.98 553.59 288.98 576.53 308.15 546.71 310.17 535.57 337.91 524.42 310.17 494.6 308.15 517.54 288.98 510.25 259.98 535.57 275.88"/>
              <g>
                <polygon class="st10" points="445.79 295.85 463.17 284.94 458.16 304.85 473.92 318.01 453.44 319.4 445.79 338.45 438.14 319.4 417.65 318.01 433.41 304.85 428.4 284.94 445.79 295.85"/>
                <polygon class="st11" points="625.35 295.85 642.73 284.94 637.72 304.85 653.48 318.01 632.99 319.4 625.35 338.45 617.7 319.4 597.21 318.01 612.97 304.85 607.96 284.94 625.35 295.85"/>
              </g>
            </g>
          </g>
        </g>
      </g>
    </g>
  </g>
</svg>