<?xml version="1.0" encoding="UTF-8"?>
<svg id="Layer_1" xmlns="http://www.w3.org/2000/svg" version="1.1" xmlns:xlink="http://www.w3.org/1999/xlink" viewBox="0 0 1379.15 1379.15">
  <!-- Generator: Adobe Illustrator 29.2.1, SVG Export Plug-In . SVG Version: 2.1.0 Build 116)  -->
  <defs>
    <style>
      .st0 {
        fill: url(#linear-gradient1);
      }

      .st1 {
        fill: none;
      }

      .st2 {
        fill: url(#linear-gradient);
      }

      .st3 {
        clip-path: url(#clippath);
      }
    </style>
    <linearGradient id="linear-gradient" x1="132.41" y1="1109.41" x2="1246.74" y2="1109.41" gradientUnits="userSpaceOnUse">
      <stop offset="0" stop-color="#ae772b"/>
      <stop offset=".09" stop-color="#dcb663"/>
      <stop offset=".14" stop-color="#f3d680"/>
      <stop offset=".24" stop-color="#f3d680"/>
      <stop offset=".69" stop-color="#cd9840"/>
      <stop offset="1" stop-color="#ae772b"/>
    </linearGradient>
    <clipPath id="clippath">
      <path class="st1" d="M725.83,471.03l-100.1-109.74,41.16-37.24c5.28-4.78,13.43-4.35,18.18.95l178.08,198.68v104.15l-95.66-105.31-111.09,101.45,100.29,110.7-41.67,39.16c-5.27,4.96-13.6,4.58-18.41-.83l-179.85-202.65v-101.06l94.12,105.35,114.95-103.61ZM588.02,199.93l-60.41,51.34c-31.6,26.85-49.81,66.22-49.81,107.69v232.62l195.76,219.67c14.77,16.45,40.31,17.13,55.93,1.5l56.88-52.93c14.66-14.66,15.1-38.3.98-53.49l-74.06-81.19,51.21-45.71,88.82,99.52s35,69.72-9.55,116.58c-44.55,46.87-87.37,81.29-87.37,81.29,0,0-74.35,41.95-131.05-18.8-56.7-60.75-147.54-167.79-147.54-167.79v38.49c0,12.57,4.61,24.7,12.95,34.11l104.34,117.61c50.7,57.14,137.63,63.65,196.27,14.7l59.21-49.42c32.17-26.85,50.76-66.59,50.76-108.5v-233.97l-194.82-218.32c-14.23-15.95-38.73-17.27-54.59-2.94l-57.96,52.34c-15.8,14.26-17.04,38.63-2.78,54.43l74.09,82.1-49.76,44.36-67.7-73.89c-43.88-47.89-42.23-118.21,9.23-165.24l52.94-46.19c42.1-36.73,105.83-33.11,143.49,8.16l147.87,162.02v-30.58c0-15.71-5.76-30.87-16.18-42.63l-99.74-112.83c-27.9-31.56-66.81-47.72-105.94-47.72-32.38,0-64.9,11.06-91.46,33.64"/>
    </clipPath>
    <linearGradient id="linear-gradient1" x1="6122.74" y1="2348.25" x2="6125.83" y2="2348.25" gradientTransform="translate(494081.02 1287324.25) rotate(-90) scale(210.11 -210.11)" xlink:href="#linear-gradient"/>
  </defs>
  <path class="st2" d="M168.43,1050.85c4.11,4.85,6.2,10.47,6.2,16.71s-2.27,11.78-6.76,16.26c-4.42,4.42-9.82,6.66-16.06,6.66-7.93,0-14.25-3.27-18.79-9.71l-.6-.85,4.5-2.89.56.77c3.54,4.89,8.37,7.36,14.34,7.36,4.91,0,8.94-1.68,12.31-5.15,3.48-3.48,5.17-7.55,5.17-12.43,0-5.16-1.64-9.53-5-13.38-3.3-3.88-7.27-5.94-12.15-6.33-4.98-.42-9.24-2.43-12.66-5.96-3.41-3.62-5.13-8.03-5.13-13.12s1.87-9.75,5.54-13.43c3.75-3.75,8.3-5.65,13.53-5.65,7.32,0,14.1,4.31,17.26,10.97l.42.87-4.73,2.45-.43-.97c-2.14-4.84-7.17-8.09-12.52-8.09-3.93,0-7.17,1.33-9.9,4.05-2.73,2.72-4.05,5.93-4.05,9.8s1.29,7.03,3.94,9.58c2.45,2.45,5.68,3.89,9.6,4.27h0c6.13.63,11.32,3.4,15.4,8.23ZM222.1,1014.92c6.12,0,11.97,1.52,17.41,4.53,5.57,2.93,9.92,6.98,12.94,12.05l.42.71,4.92-1.8-.59-1.03c-3.48-6.04-8.51-10.89-14.92-14.41-6.28-3.5-13.07-5.28-20.18-5.28-10.8,0-20.35,4.07-28.38,12.11-7.97,7.97-12.01,17.48-12.01,28.28s4.04,20.31,12.01,28.39c8.07,7.96,17.62,12,28.38,12,7.11,0,13.9-1.78,20.18-5.27,6.42-3.52,11.45-8.37,14.93-14.42l.59-1.03-4.92-1.8-.42.71c-3.04,5.09-7.27,9.07-12.95,12.15-5.48,2.94-11.34,4.43-17.4,4.43-9.38,0-17.67-3.54-24.64-10.51s-10.51-15.27-10.51-24.64,3.54-17.67,10.51-24.64,15.27-10.51,24.64-10.51ZM313.42,1052.92h-40.22v-42.22h-5.23v78.76h5.23v-31.31h40.22v31.31h5.23v-78.76h-5.23v42.22ZM358.86,1006.92l32.06,82.54h-5.58l-11.21-29.19h-30.54l-11.21,29.19h-5.58l32.06-82.54ZM358.86,1021.04l-13.19,34.1h26.37l-13.19-34.1ZM399.07,1005.99v83.48h5.23v-59.01l25.97,58.36,25.86-58.34v59h5.23v-83.49l-31.1,70.13-31.2-70.12ZM519.58,1089.46l2.45-5.23h-43.52l45.25-73.53h-40.2l-2.45,5.23h33.31l-45.25,73.53h50.4ZM566.1,1010.7h-5.23v78.76h5.23v-78.76ZM583.47,1025l46.26,66.66v-80.95h-5.23v64.08l-46.26-66.25v80.94h5.23v-64.46ZM661.26,1089.46h5.23v-73.53h22.93v-5.23h-51.08v5.23h22.93v73.53ZM698.03,1089.46h38.06v-5.23h-32.82v-26.08h32.82v-5.23h-32.82v-36.99h32.82v-5.23h-38.06v78.76ZM751.94,1089.46h-5.23v-78.76h15.54c6.55,0,12.19,2.38,16.77,7.07,4.67,4.57,7.05,10.21,7.05,16.76s-2.38,12.18-7.06,16.87c-4.62,4.62-10.26,6.96-16.77,6.96h-4.84l31.41,31.11h-7.39l-29.49-29.21v29.21ZM780.85,1034.53c0-5.09-1.84-9.5-5.46-13.13s-8.04-5.46-13.13-5.46h-10.31v37.19h10.31c5.09,0,9.5-1.84,13.13-5.46s5.46-8.04,5.46-13.13ZM847.48,1010.7h-5.23v64.08l-46.26-66.25v80.94h5.23v-64.46l46.26,66.66v-80.95ZM887.69,1006.92l32.06,82.54h-5.58l-11.21-29.19h-30.54l-11.21,29.19h-5.58l32.06-82.54ZM900.88,1055.14l-13.19-34.1-13.19,34.1h26.37ZM909.82,1015.93h22.93v73.53h5.23v-73.53h22.93v-5.23h-51.08v5.23ZM969.51,1089.46h5.23v-78.76h-5.23v78.76ZM1054.04,1021.81c8.03,7.92,12.1,17.44,12.1,28.27s-4.07,20.35-12.11,28.38c-7.97,7.97-17.48,12.01-28.28,12.01s-20.31-4.04-28.38-12c-7.97-8.08-12.01-17.62-12.01-28.39s4.04-20.31,12.01-28.28c8.04-8.04,17.58-12.11,28.38-12.11s20.35,4.08,28.28,12.12ZM1050.4,1025.44c-6.98-6.98-15.27-10.51-24.64-10.51s-17.67,3.54-24.64,10.51-10.51,15.27-10.51,24.64,3.54,17.67,10.51,24.64,15.27,10.51,24.64,10.51,17.67-3.54,24.64-10.51c6.98-6.98,10.51-15.27,10.51-24.64s-3.54-17.67-10.51-24.64ZM1123.03,1074.78l-46.26-66.25v80.94h5.23v-64.46l46.26,66.66v-80.95h-5.23v64.08ZM1168.47,1006.92l32.06,82.54h-5.58l-11.21-29.19h-30.54l-11.21,29.19h-5.58l32.06-82.54ZM1168.47,1021.04l-13.19,34.1h26.37l-13.19-34.1ZM1213.91,1084.23v-73.53h-5.23v78.76h38.06v-5.23h-32.82ZM538.56,1179.25h30.89c-1.83,7.44-5.9,13.84-12.11,19.03-6.59,5.41-14.02,8.16-22.09,8.16-9.38,0-17.67-3.54-24.64-10.51s-10.51-15.27-10.51-24.64,3.54-17.67,10.51-24.64c6.98-6.98,15.27-10.51,24.64-10.51,6.12,0,11.97,1.52,17.41,4.53,5.56,2.93,9.92,6.98,12.94,12.05l.42.71,4.92-1.8-.59-1.03c-3.48-6.04-8.51-10.89-14.92-14.41-6.28-3.5-13.07-5.28-20.18-5.28-10.8,0-20.35,4.07-28.38,12.11-7.97,7.97-12.01,17.48-12.01,28.28s4.04,20.31,12.01,28.39c8.07,7.96,17.62,12,28.38,12,10.08,0,19.14-3.59,26.93-10.66s12.33-15.82,13.25-25.8l.1-1.09h-34.33l-2.65,5.13ZM609.99,1128.12l32.06,82.54h-5.58l-11.21-29.19h-30.54l-11.21,29.19h-5.58l32.06-82.54ZM609.99,1142.24l-13.19,34.1h26.37l-13.19-34.1ZM650.2,1127.19v83.48h5.23v-59.01l25.97,58.36,25.86-58.34v59h5.23v-83.49l-31.1,70.13-31.2-70.12ZM724.64,1210.66h5.23v-78.76h-5.23v78.76ZM788.27,1195.98l-46.26-66.25v80.94h5.23v-64.46l46.26,66.66v-80.95h-5.23v64.08ZM847.82,1179.25h30.89c-1.83,7.44-5.9,13.84-12.11,19.03-6.59,5.41-14.02,8.16-22.09,8.16-9.38,0-17.67-3.54-24.64-10.51s-10.51-15.27-10.51-24.64,3.54-17.67,10.51-24.64c6.98-6.98,15.27-10.51,24.64-10.51,6.12,0,11.97,1.52,17.41,4.53,5.57,2.93,9.92,6.98,12.94,12.05l.42.71,4.92-1.8-.59-1.03c-3.48-6.04-8.51-10.89-14.92-14.41-6.28-3.5-13.07-5.28-20.18-5.28-10.8,0-20.35,4.07-28.38,12.11-7.97,7.97-12.01,17.48-12.01,28.28s4.04,20.31,12.01,28.39c8.07,7.96,17.62,12,28.38,12,10.08,0,19.14-3.59,26.93-10.66s12.33-15.82,13.25-25.8l.1-1.09h-34.33l-2.65,5.13Z"/>
  <g class="st3">
    <rect class="st0" x="264.85" y="130.45" width="849.46" height="849.46" transform="translate(-190.6 650.21) rotate(-45)"/>
  </g>
</svg>