<?xml version="1.0" encoding="UTF-8"?>
<svg id="Layer_1" xmlns="http://www.w3.org/2000/svg" version="1.1" xmlns:xlink="http://www.w3.org/1999/xlink" viewBox="0 0 1379.15 1379.15">
  <!-- Generator: Adobe Illustrator 29.2.1, SVG Export Plug-In . SVG Version: 2.1.0 Build 116)  -->
  <defs>
    <style>
      .st0 {
        fill: none;
      }

      .st1 {
        fill: url(#linear-gradient);
      }

      .st2 {
        clip-path: url(#clippath);
      }
    </style>
    <clipPath id="clippath">
      <path class="st0" d="M748.54,565.83l-162.79-178.47,66.93-60.56c8.58-7.78,21.85-7.08,29.57,1.54l289.61,323.11v169.37l-155.57-171.26-180.66,164.98,163.1,180.04-67.77,63.69c-8.57,8.07-22.12,7.45-29.93-1.35l-292.48-329.57v-164.36l153.06,171.33,186.94-168.5ZM524.42,124.94l-98.24,83.49c-51.39,43.67-81,107.7-81,175.13v378.3l318.36,357.25c24.01,26.74,65.55,27.86,90.96,2.44l92.5-86.07c23.85-23.85,24.56-62.29,1.6-86.99l-120.45-132.04,83.28-74.34,144.44,161.85s56.92,113.39-15.53,189.6c-72.45,76.22-142.09,132.2-142.09,132.2,0,0-120.91,68.22-213.12-30.58-92.22-98.8-239.95-272.88-239.95-272.88v62.6c0,20.44,7.49,40.18,21.06,55.47l169.69,191.26c82.45,92.93,223.82,103.51,319.2,23.91l96.29-80.37c52.31-43.66,82.56-108.3,82.56-176.45v-380.51l-316.84-355.05c-23.15-25.94-62.98-28.09-88.78-4.79l-94.26,85.12c-25.69,23.19-27.72,62.82-4.53,88.51l120.49,133.52-80.92,72.15-110.1-120.16c-71.36-77.89-68.68-192.24,15.01-268.72l86.09-75.12c68.47-59.74,172.11-53.85,233.36,13.27l240.48,263.49v-49.74c0-25.55-9.36-50.21-26.32-69.32l-162.21-183.5c-45.37-51.32-108.66-77.61-172.29-77.61-52.66,0-105.55,17.99-148.74,54.7"/>
    </clipPath>
    <linearGradient id="linear-gradient" x1="6121.29" y1="2348.75" x2="6126.32" y2="2348.75" gradientTransform="translate(494185.32 1287367.45) rotate(-90) scale(210.11 -210.11)" gradientUnits="userSpaceOnUse">
      <stop offset="0" stop-color="#ae772b"/>
      <stop offset=".09" stop-color="#dcb663"/>
      <stop offset=".14" stop-color="#f3d680"/>
      <stop offset=".24" stop-color="#f3d680"/>
      <stop offset=".69" stop-color="#cd9840"/>
      <stop offset="1" stop-color="#ae772b"/>
    </linearGradient>
  </defs>
  <g class="st2">
    <rect class="st1" x="-1.16" y="11.95" width="1381.47" height="1381.47" transform="translate(-294.9 693.41) rotate(-45)"/>
  </g>
</svg>